<svg height="94" width="100" xmlns="http://www.w3.org/2000/svg"><g fill="#0868ac" transform="matrix(2.72043997049 0 0 2.77066215945 -78.26803150182 -5.46206236246)"><path d="m38.187847 8.2404954c-1.835185 2.6377326-1.606729 6.0694306-.204806 8.8720796.03333.06719.06827.133309.102672.199428.02204.04193.04273.08493.06558.126323.01291.02472.02741.04891.04085.07256.02392.04462.04838.08708.0731.130623.04354.07687.08816.153201.133848.229537.02526.04192.05026.08385.07633.125783.05053.0817.102403.162337.155349.242966.02204.0344.04354.0688.06612.102132.07311.109123.147826.217706.224956.324675.0019.0027.004.0059.0064.0086.01211.0172.02554.03387.0379.05107.06666.09192.135463.182763.205074.272536.02554.03279.05133.06558.07714.09837.06209.07794.125248.155353.189485.23275.02392.02903.04811.05805.0723.08654.08628.101597.174164.202654.263928.301555.0016.0016.0038.0038.0054.0053.0038.0043.007.007.01021.01127.08762.09568.177389.189214.268243.282753.02822.02903.05698.05805.08601.08655.07042.07095.141909.140837.214211.210178.02929.02795.05832.05644.08762.08332.09649.09084.194052.180078.293498.267165.0016.0016.0029.0027.0046.0038.01693.01506.0344.02903.05107.04354.08762.07579.176852.151052.266614.225242.03655.02956.07364.0586.110465.08816.07337.0586.147555.116648.22227.173628.03951.03011.07902.0602.1188.09031.08251.06074.165563.120409.249417.179003.03064.02204.06021.04354.09084.0645.0086.0059.0164.01183.02499.01775.07956.05483.160995.107506.242174.160188.03494.02312.06961.0473.104823.06988.124709.07902.251311.156964.379235.232221.03467.01991.06988.03924.104818.05913.09407.05429.188679.107509.284624.159651.05187.02796.105091.05429.157502.08117.06773.03548.134923.07149.203729.105895.01558.0076.03172.01506.04703.02257.02769.01343.05564.02634.08332.04031.106701.05106.214211.10106.322803.149439.02312.01022.04542.02043.06827.03064.124441.05429.249947.106432.376549.156426.03037.01235.06101.02419.09165.03601.117183.04516.235987.08977.355324.131699.01505.0053.02957.01022.04462.01557.130893.04569.263135.08816.396166.129548.03171.0091.0637.01936.09568.02849.135463.04086.269322.08977.409069.115571 8.875384 1.618552 11.45345-5.333597 11.45345-5.333597-2.165232 2.820924-6.008663 3.564905-9.65019 2.736595-.13788-.03117-.271722-.07418-.406383-.11396-.03414-.01022-.06773-.02041-.101329-.03064-.131429-.04031-.261791-.08278-.391322-.127397-.01775-.0064-.03575-.0129-.05376-.01936-.116109-.04086-.230879-.08386-.345107-.127936-.03225-.0129-.06451-.02527-.09676-.03816-.125249-.04945-.249682-.10106-.37252-.154811-.02526-.01077-.04945-.02205-.07445-.03279-.105628-.04784-.21018-.09622-.314194-.146212-.0301-.01451-.0602-.02849-.09084-.04354-.08169-.03985-.162492-.08234-.243077-.12374-.05394-.0284-.108768-.05526-.162271-.08499-.09842-.05262-.195078-.107447-.291296-.163373-.03259-.01827-.06561-.03588-.09842-.05482-.12792-.07531-.254302-.153249-.379363-.232292-.03457-.02201-.06826-.04558-.102383-.06826-.09071-.05857-.180987-.118235-.269939-.179445-.0295-.02004-.05791-.04139-.08697-.06121-.08587-.06077-.170858-.122199-.255187-.184509-.03831-.0284-.07596-.05703-.113171-.08543-.07728-.05922-.154125-.118893-.230307-.180102-.0344-.02741-.06881-.05483-.102671-.08225-.09676-.07955-.19244-.159651-.286782-.241888-.0099-.0086-.0207-.0172-.03145-.02634-.102132-.08977-.202386-.181692-.301556-.274144-.02876-.02741-.05671-.05429-.08493-.08171-.07337-.06988-.145672-.140297-.216631-.212329-.02849-.02849-.05698-.05644-.08493-.08493-.09031-.09245-.179003-.185991-.265821-.281123-.0043-.0048-.0089-.0091-.01316-.01398-.09193-.100525-.181694-.203194-.269589-.306931-.02392-.02849-.04704-.0559-.07069-.08385-.06558-.07902-.130623-.159114-.194054-.239752-.02378-.02906-.04756-.05879-.07112-.08873-.0764-.09908-.151042-.19794-.224142-.298342-2.021742-2.757731-2.748044-6.5613086-1.132156-9.6849766"/><path d="m43.884627 6.0182364c-1.32719 1.909891-1.25517 4.4665336-.219856 6.4864486.173628.338656.368754.667096.586995.979947.198889.284889.419285.624096.683213.85308.09568.10536.195668.208029.297791.309086.02579.02634.05214.05161.07848.07741.09918.09622.199966.190828.304242.282753.0043.0032.0081.0075.01236.01077.0011.0011.0022.0016.003.0027.115303.101059.234358.198356.355323.294026.02689.02041.05349.04193.08063.0629.121217.093.244861.184376.371705.271457.0038.0027.007.0053.01076.008.05591.03871.112886.07472.169595.111809.02714.01775.05295.03655.08037.05322.09057.05805.182224.114497.275487.168788.01318.008.02607.01506.03898.02257.08037.04623.1618.09192.243517.135997.02849.01612.05752.03011.08654.04515.05644.02956.112886.05967.1704.08816.0086.0043.01748.008.02578.01185.116917.05752.234908.112886.355324.165564.02578.01129.05241.02149.07849.03225.09622.04086.193517.08064.29134.118262.04139.01559.08332.03064.124709.04569.08869.03279.177659.06289.267428.093.04059.0129.08037.02634.120949.03871.127664.03978.253711.08977.386765.111809 6.852605 1.135282 8.434586-4.140672 8.434586-4.140672-1.426094 2.053955-4.187789 3.033836-7.134875 2.268936-.130893-.0344-.259898-.07203-.388107-.11235-.03924-.01183-.07768-.02472-.116649-.03762-.09112-.02956-.181689-.06075-.271457-.09354-.04112-.01506-.08225-.0301-.122561-.04569-.09837-.03763-.195668-.07687-.292154-.117723-.02634-.01129-.05295-.02149-.07876-.03332-.120945-.05268-.240016-.108046-.357458-.166103-.06048-.02956-.119875-.06074-.179272-.09138-.0344-.01772-.06907-.03548-.103479-.05322-.07633-.04139-.152124-.0844-.22685-.127935-.01772-.01022-.03628-.0199-.05429-.03064-.09272-.05429-.18411-.110195-.274693-.167712-.02796-.01775-.05483-.0371-.08278-.05537-.05967-.0387-.119335-.07794-.177926-.117722-.126325-.08708-.249154-.178465-.370362-.270929-.02796-.02204-.0559-.04354-.08331-.06558-1.290047-1.018466-2.312555-2.410212-2.798708-3.9884496-.509492-1.636805-.399624-3.474191.483071-4.965238"/><path d="m48.675925 4.3578724c-.782404 1.151422-.859268 2.581369-.316352 3.853118.572485 1.349781 1.745682 2.4087496 3.11486 2.9107556.05644.02099.112886.03978.170134.05913.02499.0076.04973.01614.07499.02364.08063.02527.160727.05483.244046.07042 3.783762.731058 4.810013-1.9416186 5.083254-2.3349896-.899031 1.2944056-2.40985 1.6050986-4.263531 1.1551866-.146418-.03567-.307368-.08851-.448503-.1384916-.180986-.06451-.35933-.138051-.53261-.221279-.329165-.158089-.642919-.350085-.933774-.569823-1.658823-1.258539-2.689257-3.659582-1.606861-5.614985"/></g><g fill="#131b28" transform="matrix(.94509378 0 0 .94509378 3.30683649941 9.22704920734)"><path d="m29.744828 68.895629.00022-.0011s-.738037 2.615717-.738037 2.615717.737773-2.614616.737773-2.614616z"/><path d="m33.540699 74.574245s-.813293-.0048-.813293-.0048.813293.0048.813293.0048z"/><path d="m33.33153 78.480426h.000882s-4.872765.01775-4.872765.01775 4.872103-.01775 4.872103-.01775z"/><path d="m34.353157 74.579088s-.81358-.0048-.81358-.0048.81358.0048.81358.0048z"/><path d="m33.758676 78.148398s.848787-3.237061.848787-3.237061-.848787 3.237721-.848787 3.237721v-.00044z"/><path d="m51.698796 63.241233s-1.581189 7.433216-1.581189 7.433216 1.581189-7.433216 1.581189-7.433216z"/><path d="m47.634306 63.241233s-1.200346 5.552894-1.200346 5.552894 1.200346-5.553335 1.200346-5.553335z"/><path d="m51.427976 62.906782h-3.381056c-.187603 0-.373863.150512-.413913.333812 0 0-1.200323 5.553335-1.200323 5.553335s-1.200346 5.553334-1.200346 5.553334c-.03978.183301-.225771.333284-.413362.333284h-2.051533-.341607c-2.367576 0-2.09374-1.637356-1.608863-3.881082.0048-.02257.0097-.04462.01451-.06773 0 0 .05322-.282752.05322-.282752.0032-.01827.007-.03655.0099-.05322 0 0 .108046-.575722.108046-.575722s.11584-.617094.11584-.617094c.03521-.18599.08869-.457992.123637-.628917 0 0 .545601-2.666138.545601-2.666138s.546152-2.666137.546152-2.666137c.03763-.18384-.08547-.334891-.273065-.334891h-3.470448c-.187605 0-.373334.151051-.411756.334362 0 0-.746117 3.540246-.746117 3.540246s-.746118 3.539805-.746118 3.539805c-.000661.0016-.000881.0038-.0011.0053 0 0-.06935.32899-.06935.32899-.859531 3.924017-.631603 7.665945 4.039609 7.783079.07633.0022.135465.0027.135465.0027h7.332374c.187605 0 .373334-.150514.41257-.334363 0 0 1.581187-7.432555 1.581187-7.432555s1.581189-7.433216 1.581189-7.433216c.03898-.183842-.08278-.334363-.27038-.334363z"/><path d="m64.916092 74.719342c.187872 0 .310693.150514.273065.334363 0 0-.32844 1.604571-.32844 1.604571"/><path d="m64.532982 78.263771s.328176-1.605649.328176-1.605649-.32844 1.606177-.32844 1.606177c0-.00044.000218-.00044.000218-.00044z"/><path d="m64.121249 78.601524c.000441 0 .0011-.000441.0016-.000441-.994985.008-3.985005.03064-6.232364.03064 2.735054 0 6.230602-.03011 6.230602-.03011z"/><path d="m55.873374 72.65253c-.0027-.17578.19728-.478426.385158-.478426 0 0-.422236-.007-.422236-.007-.190291 1.913656.03709.485405.03709.485405z"/><path d="m58.198455 78.631028c-.02149 0-.04354 0-.06504.000441.02149-.000441.04354-.000441.06504-.000441z"/><path d="m64.916092 74.719342c.187872 0 .310693.150514.273065.334363 0 0-.32844 1.604571-.32844 1.604571s-.05349.261791-.05349.261791"/><path d="m59.799151 78.627285h-.01372z"/><path d="m58.96908 78.629927h-.04812z"/><path d="m58.715875 78.630587c-.02687 0-.05322 0-.07956.000441.02634-.000441.05268-.000441.07956-.000441z"/><path d="m58.458266 78.631028h-.06988z"/><path d="m58.92064 78.629927c-.06853 0-.137072.00044-.204801.00044.06773 0 .136266-.00044.204801-.00044z"/><path d="m59.78594 78.627285c-.273615.0011-.54668.0022-.815716.0027.269036-.00044.542387-.0016.815716-.0027z"/><path d="m64.123451 78.600863h.00022c-.729186.0059-2.529847.01936-4.325621.02634 1.794849-.0064 3.59595-.02041 4.325401-.02634z"/><path d="m64.532982 78.264431s.274959-1.344408.274959-1.344408-.275223 1.345465-.275223 1.345465c0-.000441.000221-.000441.000221-.0011z"/><path d="m58.63661 78.631028h-.178463z"/><path d="m58.132402 78.631469h-.241359z"/><path d="m58.387808 78.631028h-.19029z"/><path d="m8.929182 72.692822s.5251683-2.328164.5251683-2.328164-.6004264 2.661294-.6004264 2.661294-.5762499 2.710833-.5762499 2.710833.5050229-2.376383.5050229-2.376383c.03898-.183841.1050911-.484326.1464821-.667623z"/><path d="m15.215269 62.867591h-3.713085c-.187869 0-.375206.149974-.417128.332733 0 0-.352087 1.55404-.352087 1.55404s-.352087 1.554589-.352087 1.554589c-.04139.182766.07821.332734.266085.332734h3.741928c.187604 0 .374128-.149975.414442-.333283 0 0 .340264-1.55404.340264-1.55404s.340263-1.552961.340263-1.552961v-.000441c.04005-.183305-.08063-.333283-.268507-.333283z"/><path d="m14.407214 68.037154v-.00044s-1.089067 5.038338-1.089067 5.038338 1.089067-5.037898 1.089067-5.037898z"/><path d="m3.620685 84.730624s1.871735.02419 3.0615779.02419c-.903876 0-2.39664-.01664-3.0631189-.02472.00066 0 .0011.00044.0017.00044z"/><path d="m9.9794322 68.036494s-.52572 2.328164-.52572 2.328164.52572-2.328164.52572-2.328164z"/><path d="m14.138597 67.703364h-3.742369c-.187602 0-.375205.149979-.4165988.333284 0 0-.5257189 2.328164-.5257189 2.328164s-.5251694 2.328164-.5251694 2.328164c-.04139.183305-.107511.483798-.146483.667625 0 0-.505022 2.376383-.505022 2.376383s-.504758 2.376383-.504758 2.376383c-.03924.183302-.119872.479482-.180078.657408 0 0-.699066 2.080288-1.87442 2.056641-.04999-.0011-.09864-.0016-.146749-.0027-.569536-.01077-1.017026-.01882-1.017026-.01882h-.000881c-.187334-.0027-.375756.143523-.419549.325753 0 0-.388108 1.631454-.388108 1.631454s-.387579 1.630905-.387579 1.630905c-.04354.182224.07418.332734.260712.33597.666568.008 2.15931.02472 3.06312.02472 2.9358563 0 4.4834881-1.626611 5.4756111-6.307446 0 0 1.161087-5.372127 1.161087-5.372127s1.089068-5.038338 1.089068-5.038338c.03951-.1833-.0817-.333283-.269322-.333283z"/><path d="m67.300622 78.441234c-.187602 0-.309351-.150513-.26985-.334363 0 0 2.815199-13.186471 2.815199-13.186471"/><path d="m71.213189 78.106343s1.138519-5.628194 1.138519-5.628194-1.138519 5.628194-1.138519 5.628194z"/><path d="m67.071637 78.274119c-.02285-.09192-.0094-.317145.03037-.500993 0 0 1.336063-6.259226 1.336063-6.259226s-1.407555 6.593016-1.407555 6.593016c-.03951.183838.08225.334363.26985.334363h.341893c-.187873 0-.548024-.07526-.570614-.167175z"/><path d="m70.990808 78.365934c-.102136.04139-.339735.07526-.52759.07526h.34187c.187604 0 .37197-.150515.409069-.334892 0 0 .06773-.334362.06773-.334362-.03736.18384-.188674.552603-.291075.593997z"/><path d="m71.783451 75.292246s.5026-2.484051.5026-2.484051c-.00022.0016-.00044.0038-.000881.0048 0 0-.501786 2.479206-.501786 2.479206z"/><path d="m82.891434 65.803667s.15509.640762.15509.640762c.0427.1833-.0758.332205-.26315.332733"/><path d="m71.281444 77.772113s.501257-2.479647.501257-2.479647-.501257 2.479647-.501257 2.479647z"/><path d="m82.737314 65.147315s.15347.656352.15347.656352-.15347-.656352-.15347-.656352z"/><path d="m72.285457 72.808416c.03736-.18384.09918-.48164.138153-.66386 0 0 .536728-2.514655.536728-2.514655s-.607957 2.848445-.607957 2.848445-.06693.330048-.06693.330048z"/><path d="m69.89212 64.704317c-.03736.177391-.0852.401539-.116917.549917 0 0-1.336064 6.259666-1.336064 6.259666s1.407556-6.593456 1.407556-6.593456.04542-.216094.04542-.216094z"/><path d="m83.045564 66.444385s-.15509-.640763-.15509-.640763-.15347-.65635-.15347-.65635-.0776-.332206-.0776-.332206c-.30398-1.180991-1.19631-1.862597-3.13379-1.862597 0 0-3.016443-.0032-3.016443-.0032s-2.777989-.0032-2.777989-.0032h-.238449-2.887416c-.187603 0-.373335.149974-.41202.333812h-.00022s-.138146.653115-.138146.653115-.163144.771372-.163144.771372-.04542.216094-.04542.216094-1.407556 6.593456-1.407556 6.593456-1.336063 6.259225-1.336063 6.259225c-.03977.183841-.05322.409069-.03037.500995.02257.09192.382736.167174.570592.167174h2.820042c.187871 0 .425472-.03387.527592-.07526.1024-.04139.253711-.410148.291075-.593996 0 0 .501258-2.479647.501258-2.479647s.501786-2.479207.501786-2.479207c.00022-.0011.00044-.0032.00088-.0048 0 0 .06692-.330047.06692-.330047s.607956-2.848446.607956-2.848446.537014-2.515756.537014-2.515756c.03978-.182762.224692-.332204.41202-.332732 0 0 8.873181-.0043 8.873181-.0043.18733-.00044.30586-.14944.26313-.332734z"/><path d="m94.468404 60.650704c-.18787.0014-.49507.0025-.68295.0025h-2.84008c-.18787 0-.42842.126862-.53433.281939 0 0-6.28014 9.200586-6.28014 9.200586-.10616.15535-.22711.132236-.26876-.05053 0 0-.46203-2.027071-.46203-2.027071-.0417-.183302-.2298-.332733-.41741-.332733h-4.03741c-.18787 0-.29913.147288-.24781.327912 0 0 1.80911 6.337608 1.80911 6.337608.0516.180617.0554.477347.009.659038 0 0-.78857 3.067302-.78857 3.067302-.0467.182229.0688.331126.25669.331126h3.99028c.18761 0 .3795-.148899.42601-.331126 0 0 .78885-3.067302.78885-3.067302.0465-.181689.17712-.453677.29029-.603663 0 0 10.19557-13.531931 10.19557-13.531931.11315-.149974.0519-.272008-.13573-.270643 0 0-1.07024.007-1.07024.007z"/><path d="m62.39285 68.58804s-.00022-.0038-.00022-.0038c-.02364.203726-.211523.353165-.399139.353165h-5.118703c-.176853 0-.2669-.120411-.24083-.268771.0016-.0043.0022-.008.0048-.01183 0 0-.0017.00044-.0032.0016.0011-.0059.0011-.01127.0027-.01719 0 0 .0097-.03602.02339-.08708.488884-1.299778 1.484707-2.152858 3.356177-2.152858 2.106907 0 2.518178 1.029399 2.375062 2.186722zm-1.501637-5.908261c-6.570338 0-8.127218 3.988087-9.000664 8.013164-.873514 4.102581-.798257 7.938526 6.000516 7.938526h.241359c.02149-.000441.04354-.000441.06504-.000441h.19029.06988.178466c.02634-.000441.05268-.000441.07956-.000441.06774 0 .136269-.00044.204804-.00044h.04812c.269036-.00044.542123-.0017.815716-.0027h.01372c1.795663-.007 3.596391-.02041 4.325841-.02634.186529-.0027.369019-.1532.407462-.33542 0 0 .275223-1.345465.275223-1.345465s.05349-.261791.05349-.261791.328439-1.604571.328439-1.604571c.03763-.18384-.0852-.334363-.273064-.334363h-6.112367c-2.430988 0-3.152952-.646135-2.886977-2.545259h9.770848s-.000881.0011-.000881.0011c.0025 0 .0046-.0011.0067-.0011.155348-.0027.298869-.109658.355851-.252105.01077-.02741.0199-.05591.02364-.08546 0 0-.0011.0011-.0011.0011 1.450842-5.472309 1.034772-9.157652-5.180352-9.157652z"/><path d="m29.837302 68.567123s-.09246.327362-.09246.327362c0 .0011-.00022.0011-.00022.0011s-.737773 2.614617-.737773 2.614617-.737509 2.614175-.737509 2.614175c-.05106.180614-.246203.32844-.434346.32844h-3.90508c-2.962057 0-3.683361-2.316715-2.962057-5.73388.721127-3.49511 2.135133-5.667827 5.050447-5.887786 3.983904-.3005 4.780949 2.501664 3.818991 5.736083zm2.678028 5.68456s1.841086-4.470277 2.259249-7.052527c.570261-3.456578-1.16034-8.469374-7.84495-8.469374-6.646519 0-9.532615 4.786013-10.633946 9.988824-1.101155 5.240461.341607 9.836461 6.950365 9.79881 0 0 5.213599-.01936 5.213599-.01936s4.872765-.01775 4.872765-.01775c.187602-.0016.379499-.150513.427343-.331677 0 0 .848787-3.237719.848787-3.237719.0473-.181692-.06746-.331127-.255054-.332206 0 0-.813581-.0048-.813581-.0048s-.813294-.0048-.813294-.0048c-.159652-.0011-.251025-.104286-.231672-.24136.0035-.02472.0091-.04999.0199-.07633z"/><path d="m65.418098 71.259682c0 .123637-.100251.224164-.224163.224164-.123634 0-.224163-.10052-.224163-.224164 0-.123634.100522-.223613.224163-.223613.123903 0 .224163.09998.224163.223613z"/></g></svg>